<svg width="92" height="94" viewBox="0 0 92 94" fill="none" xmlns="http://www.w3.org/2000/svg">
<g clip-path="url(#clip0_36_53)">
<rect x="16" y="18" width="76" height="76" rx="8" fill="#31322C"/>
<path d="M25.6797 1H36.8467C38.6197 1 40.3269 1.67303 41.623 2.88281L52.0127 12.5791C53.6792 14.1345 55.8737 15 58.1533 15H78C81.866 15 85 18.134 85 22V82C85 85.866 81.866 89 78 89H18C14.134 89 11 85.866 11 82V16.959C11.0001 15.2882 11.5982 13.6729 12.6855 12.4043L20.3643 3.44434C21.6941 1.89281 23.6362 1 25.6797 1Z" fill="#FAF4E8" stroke="#31322C" stroke-width="2"/>
<path d="M9.41797 30H69.2051C72.6337 30.0002 75.5574 32.4838 76.1123 35.8672L83.4893 80.8672C84.1878 85.1283 80.8999 88.9998 76.582 89H16.7949C13.3663 88.9998 10.4426 86.5162 9.8877 83.1328L2.51074 38.1328C1.81221 33.8717 5.10007 30.0002 9.41797 30Z" fill="#FAF4E8" stroke="#31322C" stroke-width="2"/>
<g clip-path="url(#clip1_36_53)">
<path d="M57.1211 60C57.1211 67.7989 50.7989 74.1211 43 74.1211C35.2011 74.1211 28.8789 67.7989 28.8789 60C28.8789 52.2011 35.2011 45.8789 43 45.8789C50.7989 45.8789 57.1211 52.2011 57.1211 60Z" fill="#31322C"/>
<path d="M57.1211 60C57.1211 67.7989 50.7989 74.1211 43 74.1211C35.2011 74.1211 28.8789 67.7989 28.8789 60C28.8789 52.2011 35.2011 45.8789 43 45.8789C50.7989 45.8789 57.1211 52.2011 57.1211 60Z" stroke="#31322C" stroke-width="2" stroke-miterlimit="10"/>
<path d="M39.3916 53.75H58" stroke="#FAF4E8" stroke-width="2" stroke-miterlimit="10"/>
<path d="M35.7831 60L44.7517 44.466" stroke="#FAF4E8" stroke-width="2" stroke-miterlimit="10"/>
<path d="M39.3916 66.25L29.7616 49.5704" stroke="#FAF4E8" stroke-width="2" stroke-miterlimit="10"/>
<path d="M46.6084 66.25H28" stroke="#FAF4E8" stroke-width="2" stroke-miterlimit="10"/>
<path d="M50.2169 60L40.5353 76.7691" stroke="#FAF4E8" stroke-width="2" stroke-miterlimit="10"/>
<path d="M46.6084 53.75L56.2589 70.4651" stroke="#FAF4E8" stroke-width="2" stroke-miterlimit="10"/>
</g>
</g>
<defs>
<clipPath id="clip0_36_53">
<rect width="92" height="94" fill="white"/>
</clipPath>
<clipPath id="clip1_36_53">
<rect width="30" height="30" fill="white" transform="translate(28 45)"/>
</clipPath>
</defs>
</svg>
