<svg width="92" height="94" viewBox="0 0 92 94" fill="none" xmlns="http://www.w3.org/2000/svg">
<g clip-path="url(#clip0_36_40)">
<rect x="16" y="18" width="76" height="76" rx="8" fill="#31322C"/>
<path d="M25.6797 1H36.8467C38.6197 1 40.3269 1.67303 41.623 2.88281L52.0127 12.5791C53.6792 14.1345 55.8737 15 58.1533 15H78C81.866 15 85 18.134 85 22V82C85 85.866 81.866 89 78 89H18C14.134 89 11 85.866 11 82V16.959C11.0001 15.2882 11.5982 13.6729 12.6855 12.4043L20.3643 3.44434C21.6941 1.89281 23.6362 1 25.6797 1Z" fill="#FAF4E8" stroke="#31322C" stroke-width="2"/>
<path d="M9.41797 30H69.2051C72.6337 30.0002 75.5574 32.4838 76.1123 35.8672L83.4893 80.8672C84.1878 85.1283 80.8999 88.9998 76.582 89H16.7949C13.3663 88.9998 10.4426 86.5162 9.8877 83.1328L2.51074 38.1328C1.81221 33.8717 5.10007 30.0002 9.41797 30Z" fill="#FAF4E8" stroke="#31322C" stroke-width="2"/>
<rect x="27" y="53" width="26" height="14" rx="2" fill="#73A4E5"/>
<path d="M61.8701 58.7279L52.5563 49.4142C51.2964 48.1543 49.1421 49.0466 49.1421 50.8284V69.4558C49.1421 71.2377 51.2964 72.13 52.5563 70.8701L61.8701 61.5563C62.6511 60.7753 62.6511 59.509 61.8701 58.7279Z" fill="#73A4E5"/>
</g>
<defs>
<clipPath id="clip0_36_40">
<rect width="92" height="94" fill="white"/>
</clipPath>
</defs>
</svg>
