<svg width="92" height="94" viewBox="0 0 92 94" fill="none" xmlns="http://www.w3.org/2000/svg">
<g clip-path="url(#clip0_60_89)">
<rect x="16" y="18" width="76" height="76" rx="8" fill="#31322C"/>
<path d="M25.6797 1H36.8467C38.6197 1 40.3269 1.67303 41.623 2.88281L52.0127 12.5791C53.6792 14.1345 55.8737 15 58.1533 15H78C81.866 15 85 18.134 85 22V82C85 85.866 81.866 89 78 89H18C14.134 89 11 85.866 11 82V16.959C11.0001 15.2882 11.5982 13.6729 12.6855 12.4043L20.3643 3.44434C21.6111 1.98974 23.3958 1.11448 25.2979 1.01074L25.6797 1Z" fill="#FAF4E8" stroke="#31322C" stroke-width="2"/>
<path d="M9.41797 30H69.2051C72.6337 30.0002 75.5574 32.4838 76.1123 35.8672L83.4893 80.8672C84.1878 85.1283 80.8999 88.9998 76.582 89H16.7949C13.3663 88.9998 10.4426 86.5162 9.8877 83.1328L2.51074 38.1328C1.83402 34.0048 4.89863 30.2428 9.0166 30.0117L9.41797 30Z" fill="#FAF4E8" stroke="#31322C" stroke-width="2"/>
<rect width="26" height="14" rx="2" transform="matrix(-1 0 0 1 59.2843 53)" fill="#8673E6"/>
<path d="M24.4142 58.7279L33.7279 49.4142C34.9879 48.1543 37.1421 49.0466 37.1421 50.8284V69.4558C37.1421 71.2377 34.9879 72.13 33.7279 70.8701L24.4142 61.5563C23.6332 60.7753 23.6332 59.509 24.4142 58.7279Z" fill="#8673E6"/>
</g>
<defs>
<clipPath id="clip0_60_89">
<rect width="92" height="94" fill="white"/>
</clipPath>
</defs>
</svg>
