<svg width="38" height="30" viewBox="0 0 38 30" fill="none" xmlns="http://www.w3.org/2000/svg">
<path d="M38 7V4C38 2.89543 37.1046 2 36 2H25.8284C25.298 2 24.7893 2.21071 24.4142 2.58579L20.5858 6.41421C20.2107 6.78929 19.702 7 19.1716 7H4C2.89543 7 2 7.89543 2 9V28C2 29.1046 2.89543 30 4 30H36C37.1046 30 38 29.1046 38 28V7Z" fill="#31322C"/>
<path d="M23.8281 1H34C34.5523 1 35 1.44772 35 2V26C35 26.5523 34.5523 27 34 27H2C1.44772 27 1 26.5523 1 26V7C1 6.44772 1.44772 6 2 6H17.1719C17.9674 5.99992 18.7304 5.68363 19.293 5.12109L23.1211 1.29297C23.3086 1.1055 23.563 1.00008 23.8281 1Z" fill="#FAF4E8" stroke="#31322C" stroke-width="2"/>
</svg>
