<svg width="92" height="94" viewBox="0 0 92 94" fill="none" xmlns="http://www.w3.org/2000/svg">
<g clip-path="url(#clip0_1_2)">
<mask id="mask0_1_2" style="mask-type:luminance" maskUnits="userSpaceOnUse" x="0" y="0" width="92" height="94">
<path d="M92 0H0V94H92V0Z" fill="white"/>
</mask>
<g mask="url(#mask0_1_2)">
<path d="M84 18H24C19.5817 18 16 21.5817 16 26V86C16 90.4183 19.5817 94 24 94H84C88.4183 94 92 90.4183 92 86V26C92 21.5817 88.4183 18 84 18Z" fill="#31322C"/>
<path d="M25.6797 1H36.8467C38.6197 1 40.3269 1.67303 41.623 2.88281L52.0127 12.5791C53.6792 14.1345 55.8737 15 58.1533 15H78C81.866 15 85 18.134 85 22V82C85 85.866 81.866 89 78 89H18C14.134 89 11 85.866 11 82V16.959C11.0001 15.2882 11.5982 13.6729 12.6855 12.4043L20.3643 3.44434C21.6941 1.89281 23.6362 1 25.6797 1Z" fill="#FAF4E8" stroke="#31322C" stroke-width="2"/>
<path d="M9.41797 30H69.2051C72.6337 30.0002 75.5574 32.4838 76.1123 35.8672L83.4893 80.8672C84.1878 85.1283 80.8999 88.9998 76.582 89H16.7949C13.3663 88.9998 10.4426 86.5162 9.8877 83.1328L2.51074 38.1328C1.81221 33.8717 5.10007 30.0002 9.41797 30Z" fill="#FAF4E8" stroke="#31322C" stroke-width="2"/>
<path d="M37.6091 45.1833C38.855 41.5375 43.8925 41.4271 45.3695 44.8521L45.4945 45.1854L47.1758 50.1021C47.5611 51.2297 48.1837 52.2615 49.0017 53.128C49.8197 53.9944 50.8139 54.6754 51.9175 55.125L52.3695 55.2937L57.2862 56.9729C60.932 58.2187 61.0425 63.2562 57.6195 64.7333L57.2862 64.8583L52.3695 66.5396C51.2416 66.9246 50.2093 67.5471 49.3425 68.3651C48.4756 69.1831 47.7943 70.1775 47.3445 71.2812L47.1758 71.7312L45.4966 76.65C44.2508 80.2958 39.2133 80.4062 37.7383 76.9833L37.6091 76.65L35.93 71.7333C35.5449 70.6054 34.9224 69.5731 34.1044 68.7063C33.2864 67.8394 32.292 67.1581 31.1883 66.7083L30.7383 66.5396L25.8216 64.8604C22.1737 63.6146 22.0633 58.5771 25.4883 57.1021L25.8216 56.9729L30.7383 55.2937C31.8659 54.9085 32.8977 54.2858 33.7642 53.4679C34.6307 52.6499 35.3116 51.6556 35.7612 50.5521L35.93 50.1021L37.6091 45.1833ZM58.2195 38C58.6093 38 58.9912 38.1093 59.3219 38.3156C59.6527 38.5218 59.9189 38.8167 60.0904 39.1667L60.1904 39.4104L60.9195 41.5479L63.0591 42.2771C63.4497 42.4098 63.7921 42.6554 64.0429 42.9829C64.2938 43.3104 64.4417 43.705 64.468 44.1167C64.4944 44.5284 64.3979 44.9386 64.1908 45.2954C63.9838 45.6522 63.6755 45.9395 63.305 46.1208L63.0591 46.2208L60.9216 46.95L60.1925 49.0896C60.0595 49.4801 59.8137 49.8223 59.486 50.0729C59.1584 50.3235 58.7638 50.4712 58.3521 50.4973C57.9405 50.5234 57.5303 50.4268 57.1737 50.2195C56.817 50.0123 56.5299 49.7039 56.3487 49.3333L56.2487 49.0896L55.5195 46.9521L53.38 46.2229C52.9894 46.0902 52.647 45.8446 52.3961 45.5171C52.1453 45.1896 51.9974 44.795 51.971 44.3833C51.9447 43.9716 52.0412 43.5614 52.2482 43.2046C52.4553 42.8478 52.7636 42.5605 53.1341 42.3792L53.38 42.2792L55.5175 41.55L56.2466 39.4104C56.3871 38.9988 56.6529 38.6415 57.0067 38.3885C57.3605 38.1356 57.7846 37.9997 58.2195 38Z" fill="url(#paint0_linear_1_2)"/>
</g>
</g>
<defs>
<linearGradient id="paint0_linear_1_2" x1="66.5" y1="38" x2="26.9713" y2="81.3183" gradientUnits="userSpaceOnUse">
<stop stop-color="#73A0FF"/>
<stop offset="1" stop-color="#B672D3"/>
</linearGradient>
<clipPath id="clip0_1_2">
<rect width="92" height="94" fill="white"/>
</clipPath>
</defs>
</svg>
