<svg width="24" height="24" viewBox="0 0 24 24" fill="none" xmlns="http://www.w3.org/2000/svg">
<g clip-path="url(#clip0_60_2)">
<g clip-path="url(#clip1_60_2)">
<path d="M21.2876 3.82084L19.0706 1.60416C16.9323 -0.534185 13.452 -0.535216 11.3127 1.60416C9.36155 3.55501 9.19013 6.62172 10.7979 8.76874L1.33785 18.229C1.03175 18.5349 1.03175 19.0311 1.33785 19.3372L3.55429 21.5539C3.86024 21.8599 4.35656 21.8599 4.66251 21.5539L5.21685 20.9996L7.98769 23.7706C8.29364 24.0765 8.78996 24.0765 9.09591 23.7706L10.7584 22.108L9.09591 20.4459C8.78982 20.1398 8.78982 19.6436 9.09591 19.3374C9.402 19.0312 9.89799 19.0316 10.2041 19.3372L11.8669 20.9995L13.5293 19.3372C13.8352 19.0312 13.8352 18.5349 13.5293 18.2289L10.7583 15.4581L14.1226 12.0938C16.2707 13.7013 19.3371 13.5303 21.2877 11.5789C23.4264 9.44018 23.4264 5.95966 21.2876 3.82084ZM19.0706 9.3626C18.2526 10.1807 17.0033 10.2582 16.1046 9.65712C15.8046 9.45607 13.7845 7.40111 13.5291 7.14569C12.6128 6.22905 12.6128 4.73767 13.5286 3.82107C13.5291 3.82079 13.5291 3.82079 13.5291 3.82079C14.445 2.90415 15.9374 2.90363 16.8543 3.82051C17.1361 4.10242 19.1654 6.09681 19.3655 6.39602C19.9696 7.29846 19.8861 8.54768 19.0706 9.3626Z" fill="#31322C"/>
</g>
</g>
<defs>
<clipPath id="clip0_60_2">
<rect width="24" height="24" fill="white"/>
</clipPath>
<clipPath id="clip1_60_2">
<rect width="24" height="24" fill="white"/>
</clipPath>
</defs>
</svg>
