<svg width="92" height="94" viewBox="0 0 92 94" fill="none" xmlns="http://www.w3.org/2000/svg">
<g clip-path="url(#clip0_36_53)">
<rect x="16" y="18" width="76" height="76" rx="8" fill="#31322C"/>
<path d="M25.6797 1H36.8467C38.6197 1 40.3269 1.67303 41.623 2.88281L52.0127 12.5791C53.6792 14.1345 55.8737 15 58.1533 15H78C81.866 15 85 18.134 85 22V82C85 85.866 81.866 89 78 89H18C14.134 89 11 85.866 11 82V16.959C11.0001 15.2882 11.5982 13.6729 12.6855 12.4043L20.3643 3.44434C21.6941 1.89281 23.6362 1 25.6797 1Z" fill="#FAF4E8" stroke="#31322C" stroke-width="2"/>
<path d="M9.41797 30H69.2051C72.6337 30.0002 75.5574 32.4838 76.1123 35.8672L83.4893 80.8672C84.1878 85.1283 80.8999 88.9998 76.582 89H16.7949C13.3663 88.9998 10.4426 86.5162 9.8877 83.1328L2.51074 38.1328C1.81221 33.8717 5.10007 30.0002 9.41797 30Z" fill="#FAF4E8" stroke="#31322C" stroke-width="2"/>
<path d="M56.8977 63.8285C56.7977 63.4424 56.6229 63.0803 56.3835 62.7634C56.144 62.4464 55.8448 62.1809 55.5031 61.9823C55.1639 61.7825 54.8823 61.4962 54.6862 61.1519C54.49 60.8076 54.3862 60.4172 54.3851 60.0196V59.9792C54.3862 59.5817 54.4901 59.1913 54.6865 58.8471C54.8829 58.503 55.1648 58.217 55.5042 58.0177C56.1905 57.615 56.6911 56.9528 56.8965 56.1766C57.1018 55.4003 56.995 54.5731 56.5995 53.8765L55.0363 51.1281C54.6392 50.432 53.9856 49.9242 53.2192 49.7163C52.4528 49.5083 51.6363 49.6173 50.9492 50.0192L50.8444 50.0769C50.5348 50.26 50.1828 50.3565 49.8244 50.3565C49.4659 50.3565 49.1139 50.26 48.8043 50.0769L48.5766 49.9419C48.2654 49.7627 48.0067 49.5028 47.8271 49.189C47.6474 48.8752 47.5533 48.5186 47.5542 48.1558V48.0312C47.553 47.2276 47.2376 46.4573 46.6769 45.8892C46.1163 45.321 45.3563 45.0012 44.5635 45H41.4372C40.6444 45.0012 39.8843 45.321 39.3237 45.8892C38.7631 46.4573 38.4476 47.2276 38.4464 48.0312V48.1558C38.4487 48.5192 38.3556 48.8768 38.1765 49.1917C37.9974 49.5066 37.7389 49.7675 37.4275 49.9477L37.1941 50.0769C36.8846 50.2602 36.5325 50.3568 36.174 50.3568C35.8155 50.3568 35.4635 50.2602 35.1539 50.0769L35.0469 50.0135C34.3596 49.6126 33.5435 49.5044 32.7775 49.7125C32.0116 49.9205 31.3583 50.428 30.9609 51.1235L29.4012 53.8719C29.0057 54.5685 28.8989 55.3957 29.1042 56.1719C29.3095 56.9482 29.8102 57.6103 30.4964 58.0131C30.8375 58.217 31.1202 58.5077 31.3166 58.8562C31.513 59.2048 31.6163 59.5992 31.6163 60.0006C31.6163 60.402 31.513 60.7964 31.3166 61.1449C31.1202 61.4935 30.8375 61.7841 30.4964 61.9881C30.1561 62.187 29.8577 62.4519 29.6184 62.7677C29.3792 63.0835 29.2037 63.444 29.1019 63.8286C29.0002 64.2132 28.9743 64.6143 29.0256 65.0091C29.077 65.4039 29.2046 65.7845 29.4012 66.1292L30.904 68.7692C31.3177 69.4928 31.9977 70.0206 32.7948 70.2369C33.5919 70.4532 34.4411 70.3403 35.1562 69.9231C35.4669 69.7384 35.8206 69.641 36.1808 69.641C36.5411 69.641 36.8948 69.7384 37.2055 69.9231L37.4332 70.0512C37.7438 70.2324 38.0014 70.494 38.1794 70.8093C38.3574 71.1246 38.4496 71.4821 38.4464 71.8454C38.4476 72.6819 38.7761 73.4837 39.3598 74.0751C39.9435 74.6665 40.7348 74.9991 41.5602 75H44.4405C45.2658 74.9991 46.0571 74.6665 46.6409 74.0751C47.2246 73.4837 47.553 72.6819 47.5542 71.8454C47.5518 71.4818 47.645 71.124 47.824 70.8089C48.0031 70.4938 48.2616 70.2327 48.5732 70.0523L48.8009 69.9185C49.1106 69.7352 49.4629 69.6386 49.8215 69.6386C50.1802 69.6386 50.5324 69.7352 50.8422 69.9185C51.5571 70.3357 52.4061 70.4485 53.2031 70.2322C54 70.0159 54.6797 69.4881 55.0933 68.7646L56.5949 66.1292C56.7931 65.7851 56.9219 65.4046 56.9739 65.0096C57.0259 64.6147 57 64.2132 56.8977 63.8285ZM43.0003 65.7692C41.8745 65.7692 40.7739 65.4309 39.8378 64.7969C38.9017 64.163 38.1721 63.262 37.7412 62.2078C37.3104 61.1536 37.1977 59.9936 37.4173 58.8745C37.637 57.7554 38.1791 56.7274 38.9752 55.9205C39.7713 55.1137 40.7856 54.5642 41.8898 54.3416C42.994 54.119 44.1386 54.2333 45.1787 54.6699C46.2189 55.1066 47.1079 55.846 47.7334 56.7948C48.3589 57.7435 48.6927 58.859 48.6927 60C48.6909 61.5295 48.0906 62.9959 47.0235 64.0774C45.9563 65.159 44.5095 65.7674 43.0003 65.7692Z" fill="#31322C"/>
</g>
<defs>
<clipPath id="clip0_36_53">
<rect width="92" height="94" fill="white"/>
</clipPath>
</defs>
</svg>
