<svg width="32" height="32" viewBox="0 0 32 32" fill="none" xmlns="http://www.w3.org/2000/svg">
<path d="M18.2594 7.24755C19.0882 7.46144 19.8711 7.7898 20.59 8.21495C20.59 8.21495 20.9363 7.8685 21.3253 7.47949C21.6078 7.19674 21.9911 7.03816 22.3907 7.03816C22.7898 7.03816 23.1732 7.19674 23.4556 7.47949C23.7982 7.82219 24.1778 8.20174 24.5205 8.54444C24.8033 8.82686 24.9618 9.21021 24.9618 9.60935C24.9618 10.0089 24.8033 10.3922 24.5205 10.6746C24.1315 11.0636 23.7851 11.41 23.7851 11.41C24.2102 12.1289 24.5385 12.9118 24.7525 13.7406H25.7906C26.6225 13.7406 27.2969 14.4151 27.2969 15.2469V16.7531C27.2969 17.5849 26.6225 18.2594 25.7906 18.2594H24.7525C24.5385 19.0882 24.2102 19.8711 23.7851 20.5899C23.7851 20.5899 24.1315 20.9364 24.5205 21.3253C24.8033 21.6078 24.9618 21.9911 24.9618 22.3907C24.9618 22.7898 24.8033 23.1731 24.5205 23.4556C24.1778 23.7982 23.7982 24.1778 23.4556 24.5205C23.1732 24.8033 22.7898 24.9618 22.3907 24.9618C21.9911 24.9618 21.6078 24.8033 21.3253 24.5205C20.9363 24.1315 20.59 23.785 20.59 23.785C19.8711 24.2102 19.0882 24.5386 18.2594 24.7524V25.7906C18.2594 26.6224 17.585 27.2969 16.7531 27.2969H15.2469C14.415 27.2969 13.7406 26.6224 13.7406 25.7906V24.7524C12.9118 24.5386 12.1289 24.2102 11.4101 23.785C11.4101 23.785 11.0637 24.1315 10.6746 24.5205C10.3922 24.8033 10.0089 24.9618 9.60936 24.9618C9.21022 24.9618 8.82683 24.8033 8.54445 24.5205C8.2018 24.1778 7.8222 23.7982 7.4795 23.4556C7.19675 23.1731 7.03817 22.7898 7.03817 22.3907C7.03817 21.9911 7.19675 21.6078 7.4795 21.3253C7.86852 20.9364 8.21497 20.5899 8.21497 20.5899C7.78981 19.8711 7.4615 19.0882 7.24756 18.2594H6.20942C5.37758 18.2594 4.70314 17.5849 4.70314 16.7531V15.2469C4.70314 14.4151 5.37758 13.7406 6.20942 13.7406H7.24756C7.4615 12.9118 7.78981 12.1289 8.21497 11.41C8.21497 11.41 7.86852 11.0636 7.4795 10.6746C7.19675 10.3922 7.03817 10.0089 7.03817 9.60935C7.03817 9.21021 7.19675 8.82686 7.4795 8.54444C7.8222 8.20174 8.2018 7.82219 8.54445 7.47949C8.82683 7.19674 9.21022 7.03816 9.60936 7.03816C10.0089 7.03816 10.3922 7.19674 10.6746 7.47949C11.0637 7.8685 11.4101 8.21495 11.4101 8.21495C12.1289 7.7898 12.9118 7.46144 13.7406 7.24755V6.20936C13.7406 5.37752 14.415 4.70313 15.2469 4.70313H16.7531C17.585 4.70313 18.2594 5.37752 18.2594 6.20936V7.24755Z" stroke="#31322C" stroke-width="2.5" stroke-miterlimit="10" stroke-linecap="round" stroke-linejoin="round"/>
<path d="M16 11.4812C18.494 11.4812 20.5188 13.506 20.5188 16C20.5188 18.4939 18.494 20.5187 16 20.5187C13.506 20.5187 11.4813 18.4939 11.4813 16C11.4813 13.506 13.506 11.4812 16 11.4812Z" stroke="#31322C" stroke-width="2.5" stroke-miterlimit="10" stroke-linecap="round" stroke-linejoin="round"/>
</svg>
